<svg width="30" height="31" viewBox="0 0 30 31" fill="none" xmlns="http://www.w3.org/2000/svg">
<path d="M9.70589 16.9706C9.41503 16.9706 9.13071 16.8843 8.88887 16.7227C8.64703 16.5612 8.45855 16.3315 8.34724 16.0628C8.23594 15.7941 8.20681 15.4984 8.26356 15.2131C8.3203 14.9278 8.46036 14.6658 8.66602 14.4601C8.87169 14.2545 9.13372 14.1144 9.41899 14.0577C9.70426 14.0009 9.99994 14.03 10.2687 14.1414C10.5374 14.2527 10.767 14.4411 10.9286 14.683C11.0902 14.9248 11.1765 15.2091 11.1765 15.5C11.1765 15.89 11.0215 16.2641 10.7457 16.5399C10.47 16.8156 10.0959 16.9706 9.70589 16.9706ZM20.2941 14.0294C20.0033 14.0294 19.7189 14.1157 19.4771 14.2772C19.2353 14.4388 19.0468 14.6685 18.9355 14.9372C18.8242 15.2059 18.795 15.5016 18.8518 15.7869C18.9085 16.0722 19.0486 16.3342 19.2543 16.5399C19.4599 16.7455 19.722 16.8856 20.0072 16.9423C20.2925 16.9991 20.5882 16.9699 20.8569 16.8586C21.1256 16.7473 21.3553 16.5588 21.5169 16.317C21.6785 16.0752 21.7647 15.7909 21.7647 15.5C21.7647 15.11 21.6098 14.7359 21.334 14.4601C21.0582 14.1843 20.6841 14.0294 20.2941 14.0294ZM18.6471 20.6353C17.5522 21.3154 16.2889 21.6758 15 21.6758C13.7111 21.6758 12.4478 21.3154 11.3529 20.6353C11.1548 20.5105 10.9152 20.4695 10.6869 20.5213C10.4585 20.5732 10.2601 20.7136 10.1353 20.9118C10.0105 21.1099 9.9695 21.3495 10.0214 21.5778C10.0732 21.8062 10.2136 22.0046 10.4118 22.1294C11.7884 22.9872 13.378 23.4418 15 23.4418C16.622 23.4418 18.2116 22.9872 19.5882 22.1294C19.6863 22.0676 19.7713 21.9871 19.8383 21.8925C19.9053 21.7978 19.953 21.6909 19.9787 21.5778C20.0043 21.4648 20.0075 21.3478 19.9879 21.2335C19.9684 21.1192 19.9265 21.0099 19.8647 20.9118C19.8029 20.8137 19.7224 20.7287 19.6278 20.6617C19.5331 20.5947 19.4262 20.547 19.3131 20.5213C19.2001 20.4957 19.0831 20.4925 18.9688 20.5121C18.8545 20.5316 18.7452 20.5735 18.6471 20.6353ZM30 15.5C30 18.4667 29.1203 21.3668 27.472 23.8335C25.8238 26.3003 23.4811 28.2229 20.7403 29.3582C17.9994 30.4935 14.9834 30.7906 12.0736 30.2118C9.16393 29.633 6.49119 28.2044 4.3934 26.1066C2.29562 24.0088 0.867006 21.3361 0.288228 18.4263C-0.290551 15.5166 0.00649901 12.5006 1.14181 9.75975C2.27713 7.01886 4.19971 4.67618 6.66645 3.02795C9.13319 1.37973 12.0333 0.5 15 0.5C18.9768 0.50467 22.7894 2.08652 25.6014 4.89856C28.4135 7.71059 29.9953 11.5232 30 15.5ZM28.2353 15.5C28.2311 12.0657 26.8938 8.76707 24.5052 6.29945C22.1166 3.83182 18.8633 2.38792 15.4309 2.27206C13.5735 4.79853 13.5294 7.24265 13.5294 7.2647C13.5294 7.65473 13.6844 8.02878 13.9601 8.30457C14.2359 8.58036 14.61 8.73529 15 8.73529C15.39 8.73529 15.7641 8.58036 16.0399 8.30457C16.3157 8.02878 16.4706 7.65473 16.4706 7.2647C16.4706 7.03069 16.5636 6.80626 16.729 6.64079C16.8945 6.47531 17.1189 6.38235 17.3529 6.38235C17.587 6.38235 17.8114 6.47531 17.9769 6.64079C18.1423 6.80626 18.2353 7.03069 18.2353 7.2647C18.2353 8.12276 17.8944 8.94567 17.2877 9.5524C16.681 10.1591 15.8581 10.5 15 10.5C14.1419 10.5 13.319 10.1591 12.7123 9.5524C12.1056 8.94567 11.7647 8.12276 11.7647 7.2647C11.7647 7.15441 11.7868 4.93823 13.2559 2.37941C10.7348 2.71455 8.36374 3.76894 6.42627 5.41642C4.48881 7.0639 3.06703 9.2347 2.33104 11.6691C1.59505 14.1035 1.57603 16.6984 2.27625 19.1433C2.97647 21.5882 4.36628 23.7797 6.27938 25.4554C8.19249 27.1311 10.5479 28.2201 13.0637 28.5922C15.5796 28.9642 18.1494 28.6036 20.4656 27.5533C22.7819 26.5031 24.7465 24.8077 26.1244 22.6701C27.5023 20.5325 28.2352 18.0432 28.2353 15.5Z" fill="#EC407A"/>
</svg>
