<svg width="14" height="15" viewBox="0 0 14 15" fill="none" xmlns="http://www.w3.org/2000/svg">
<path d="M2.65039 13.3506L0.73291 14.0894C0.633301 14.1281 0.541992 14.1032 0.458984 14.0146C0.38151 13.9316 0.362142 13.8403 0.400879 13.7407L1.18945 11.8896L10.2539 2.8418L11.7065 4.30273L2.65039 13.3506ZM12.437 3.58887L10.9678 2.12793L11.8062 1.29785C12.0164 1.0931 12.2295 0.982422 12.4453 0.96582C12.6667 0.949219 12.8714 1.03499 13.0596 1.22314L13.3418 1.50537C13.5355 1.69906 13.6268 1.90381 13.6157 2.11963C13.6047 2.33545 13.4912 2.55127 13.2754 2.76709L12.437 3.58887Z" fill="black"/>
</svg>
